# xmcd CD database file
# Copyright (C) 1996 Ti Kan
#
# Track frame offsets:
# 	192
# 	17757
# 	33595
# 	48622
# 	63272
# 	77922
# 	97252
# 	112590
# 	125610
# 	141792
# 	160562
# 	175230
#
# Disc length: 2526 seconds
#
# Revision: 1
# Processed by: cddbd v1.4b41PL1 Copyright (c) Steve Scherf et al.
# Submitted via: DiscPlay 3.4.1
#
DISCID=9b09dc0c
DTITLE=Don Williams - Greatest Country Hits
DYEAR=1900
DGENRE=
TTITLE0=Heartbeat in the Darkness
TTITLE1=Then it's Love
TTITLE2=We've Got a Good Fire Goin'
TTITLE3=Another Place, Another Time
TTITLE4=Desperately
TTITLE5=Senorita
TTITLE6=I Wouldn't Be a Man
TTITLE7=Some Broken Hearts Never Mend
TTITLE8=Til The Rivers All Run Dry
TTITLE9=I Believe in You
TTITLE10=If Hollywood Don't Need You
TTITLE11=I'll Never Be in Love Again
EXTD=
EXTT0=
EXTT1=
EXTT2=
EXTT3=
EXTT4=
EXTT5=
EXTT6=
EXTT7=
EXTT8=
EXTT9=
EXTT10=
EXTT11=
PLAYORDER=
